<mxfile host="app.diagrams.net" agent="Mozilla/5.0 (Windows NT 10.0; Win64; x64) AppleWebKit/537.36 (KHTML, like Gecko) Chrome/136.0.0.0 Safari/537.36 Edg/136.0.0.0" version="26.1.1">
  <diagram name="Page-1" id="5f0bae14-7c28-e335-631c-24af17079c00">
    <mxGraphModel dx="2526" dy="781" grid="1" gridSize="10" guides="1" tooltips="1" connect="1" arrows="1" fold="1" page="1" pageScale="1" pageWidth="1100" pageHeight="850" background="none" math="0" shadow="0">
      <root>
        <mxCell id="0" />
        <mxCell id="1" parent="0" />
        <mxCell id="39150e848f15840c-1" value="主线程" style="verticalAlign=top;align=left;spacingTop=8;spacingLeft=2;spacingRight=12;shape=cube;size=10;direction=south;fontStyle=4;html=1;rounded=0;shadow=0;comic=0;labelBackgroundColor=none;strokeWidth=1;fontFamily=Verdana;fontSize=12" parent="1" vertex="1">
          <mxGeometry x="120" y="267" width="330" height="220" as="geometry" />
        </mxCell>
        <mxCell id="39150e848f15840c-2" value="采集线程" style="verticalAlign=top;align=left;spacingTop=8;spacingLeft=2;spacingRight=12;shape=cube;size=10;direction=south;fontStyle=4;html=1;rounded=0;shadow=0;comic=0;labelBackgroundColor=none;strokeWidth=1;fontFamily=Verdana;fontSize=12" parent="1" vertex="1">
          <mxGeometry x="510" y="267" width="330" height="220" as="geometry" />
        </mxCell>
        <mxCell id="39150e848f15840c-3" value="共享内存" style="verticalAlign=top;align=left;spacingTop=8;spacingLeft=2;spacingRight=12;shape=cube;size=10;direction=south;fontStyle=4;html=1;rounded=0;shadow=0;comic=0;labelBackgroundColor=none;strokeWidth=1;fontFamily=Verdana;fontSize=12" parent="1" vertex="1">
          <mxGeometry x="500" y="612" width="530" height="158" as="geometry" />
        </mxCell>
        <mxCell id="39150e848f15840c-4" value="«interface»&lt;br&gt;&lt;b&gt;模型更新&lt;/b&gt;" style="html=1;rounded=0;shadow=0;comic=0;labelBackgroundColor=none;strokeWidth=1;fontFamily=Verdana;fontSize=12;align=center;" parent="1" vertex="1">
          <mxGeometry x="151" y="337" width="110" height="50" as="geometry" />
        </mxCell>
        <mxCell id="39150e848f15840c-5" value="模型构建&lt;div&gt;子线程管理&lt;/div&gt;" style="shape=component;align=left;spacingLeft=36;rounded=0;shadow=0;comic=0;labelBackgroundColor=none;strokeWidth=1;fontFamily=Verdana;fontSize=12;html=1;" parent="1" vertex="1">
          <mxGeometry x="301" y="332" width="120" height="60" as="geometry" />
        </mxCell>
        <mxCell id="39150e848f15840c-6" value="" style="ellipse;whiteSpace=wrap;html=1;rounded=0;shadow=0;comic=0;labelBackgroundColor=none;strokeWidth=1;fontFamily=Verdana;fontSize=12;align=center;" parent="1" vertex="1">
          <mxGeometry x="351" y="427" width="20" height="20" as="geometry" />
        </mxCell>
        <mxCell id="gok9Ai7LqvoJ1hXdXVOz-11" style="edgeStyle=orthogonalEdgeStyle;rounded=0;orthogonalLoop=1;jettySize=auto;html=1;" edge="1" parent="1" source="39150e848f15840c-7" target="39150e848f15840c-8">
          <mxGeometry relative="1" as="geometry" />
        </mxCell>
        <mxCell id="39150e848f15840c-7" value="对下通讯&lt;div&gt;接收数据&lt;/div&gt;&lt;div&gt;下发指令&lt;/div&gt;" style="shape=component;align=left;spacingLeft=36;rounded=0;shadow=0;comic=0;labelBackgroundColor=none;strokeWidth=1;fontFamily=Verdana;fontSize=12;html=1;" parent="1" vertex="1">
          <mxGeometry x="540" y="332" width="120" height="60" as="geometry" />
        </mxCell>
        <mxCell id="39150e848f15840c-8" value="«interface»&lt;br&gt;&lt;b&gt;变化数据&lt;/b&gt;&lt;div&gt;&lt;b&gt;控制接口&lt;/b&gt;&lt;/div&gt;" style="html=1;rounded=0;shadow=0;comic=0;labelBackgroundColor=none;strokeWidth=1;fontFamily=Verdana;fontSize=12;align=center;" parent="1" vertex="1">
          <mxGeometry x="700" y="337" width="110" height="50" as="geometry" />
        </mxCell>
        <mxCell id="39150e848f15840c-9" value="" style="ellipse;whiteSpace=wrap;html=1;rounded=0;shadow=0;comic=0;labelBackgroundColor=none;strokeWidth=1;fontFamily=Verdana;fontSize=12;align=center;" parent="1" vertex="1">
          <mxGeometry x="620" y="427" width="20" height="20" as="geometry" />
        </mxCell>
        <mxCell id="39150e848f15840c-10" value="静态数据：采集模型\转发模型\AGC模型\AVC模型&lt;div&gt;动态数据：采集数据\AGC数据\AVC数据\其他数据&lt;/div&gt;" style="shape=component;align=left;spacingLeft=36;rounded=0;shadow=0;comic=0;labelBackgroundColor=none;strokeWidth=1;fontFamily=Verdana;fontSize=12;html=1;" parent="1" vertex="1">
          <mxGeometry x="585" y="670" width="360" height="60" as="geometry" />
        </mxCell>
        <mxCell id="39150e848f15840c-11" style="edgeStyle=none;rounded=0;html=1;dashed=1;labelBackgroundColor=none;startArrow=open;startFill=0;startSize=8;endArrow=none;endFill=0;endSize=16;fontFamily=Verdana;fontSize=12;exitX=0.007;exitY=0.627;exitDx=0;exitDy=0;exitPerimeter=0;" parent="1" source="39150e848f15840c-3" target="39150e848f15840c-6" edge="1">
          <mxGeometry relative="1" as="geometry" />
        </mxCell>
        <mxCell id="39150e848f15840c-12" style="edgeStyle=none;rounded=0;html=1;dashed=1;labelBackgroundColor=none;startArrow=open;startFill=0;startSize=8;endArrow=open;endFill=0;endSize=16;fontFamily=Verdana;fontSize=12;" parent="1" source="39150e848f15840c-3" target="39150e848f15840c-9" edge="1">
          <mxGeometry relative="1" as="geometry" />
        </mxCell>
        <mxCell id="39150e848f15840c-13" style="edgeStyle=elbowEdgeStyle;rounded=0;html=1;labelBackgroundColor=none;startArrow=none;startFill=0;startSize=8;endArrow=none;endFill=0;endSize=16;fontFamily=Verdana;fontSize=12;" parent="1" source="39150e848f15840c-9" target="39150e848f15840c-7" edge="1">
          <mxGeometry relative="1" as="geometry" />
        </mxCell>
        <mxCell id="39150e848f15840c-14" style="edgeStyle=elbowEdgeStyle;rounded=0;html=1;labelBackgroundColor=none;startArrow=none;startFill=0;startSize=8;endArrow=none;endFill=0;endSize=16;fontFamily=Verdana;fontSize=12;" parent="1" source="39150e848f15840c-6" target="39150e848f15840c-5" edge="1">
          <mxGeometry relative="1" as="geometry" />
        </mxCell>
        <mxCell id="39150e848f15840c-15" style="edgeStyle=orthogonalEdgeStyle;rounded=0;html=1;labelBackgroundColor=none;startArrow=none;startFill=0;startSize=8;endArrow=open;endFill=0;endSize=16;fontFamily=Verdana;fontSize=12;dashed=1;" parent="1" source="39150e848f15840c-5" target="39150e848f15840c-4" edge="1">
          <mxGeometry relative="1" as="geometry">
            <Array as="points">
              <mxPoint x="341" y="417" />
              <mxPoint x="206" y="417" />
            </Array>
          </mxGeometry>
        </mxCell>
        <mxCell id="gok9Ai7LqvoJ1hXdXVOz-1" value="写入模型" style="text;strokeColor=#d6b656;align=center;fillColor=#fff2cc;html=1;verticalAlign=middle;whiteSpace=wrap;rounded=0;" vertex="1" parent="1">
          <mxGeometry x="490" y="537" width="60" height="30" as="geometry" />
        </mxCell>
        <mxCell id="gok9Ai7LqvoJ1hXdXVOz-3" value="写入采集数据" style="text;strokeColor=#d6b656;align=center;fillColor=#fff2cc;html=1;verticalAlign=middle;whiteSpace=wrap;rounded=0;" vertex="1" parent="1">
          <mxGeometry x="700" y="537" width="100" height="30" as="geometry" />
        </mxCell>
        <mxCell id="gok9Ai7LqvoJ1hXdXVOz-4" value="转发线程" style="verticalAlign=top;align=left;spacingTop=8;spacingLeft=2;spacingRight=12;shape=cube;size=10;direction=south;fontStyle=4;html=1;rounded=0;shadow=0;comic=0;labelBackgroundColor=none;strokeWidth=1;fontFamily=Verdana;fontSize=12" vertex="1" parent="1">
          <mxGeometry x="920" y="267" width="330" height="220" as="geometry" />
        </mxCell>
        <mxCell id="gok9Ai7LqvoJ1hXdXVOz-9" style="edgeStyle=orthogonalEdgeStyle;rounded=0;orthogonalLoop=1;jettySize=auto;html=1;exitX=1;exitY=0.5;exitDx=0;exitDy=0;" edge="1" parent="1" source="gok9Ai7LqvoJ1hXdXVOz-7" target="gok9Ai7LqvoJ1hXdXVOz-8">
          <mxGeometry relative="1" as="geometry" />
        </mxCell>
        <mxCell id="gok9Ai7LqvoJ1hXdXVOz-7" value="对上通讯&lt;div&gt;转发数据&lt;/div&gt;&lt;div&gt;接收指令&lt;/div&gt;" style="shape=component;align=left;spacingLeft=36;rounded=0;shadow=0;comic=0;labelBackgroundColor=none;strokeWidth=1;fontFamily=Verdana;fontSize=12;html=1;" vertex="1" parent="1">
          <mxGeometry x="950" y="327" width="120" height="60" as="geometry" />
        </mxCell>
        <mxCell id="gok9Ai7LqvoJ1hXdXVOz-8" value="«interface»&lt;br&gt;&lt;b&gt;变化数据&lt;/b&gt;&lt;div&gt;&lt;b&gt;断面数据&lt;/b&gt;&lt;/div&gt;&lt;div&gt;&lt;b&gt;历史数据&lt;/b&gt;&lt;/div&gt;" style="html=1;rounded=0;shadow=0;comic=0;labelBackgroundColor=none;strokeWidth=1;fontFamily=Verdana;fontSize=12;align=center;" vertex="1" parent="1">
          <mxGeometry x="1110" y="323" width="110" height="68" as="geometry" />
        </mxCell>
        <mxCell id="gok9Ai7LqvoJ1hXdXVOz-12" value="" style="ellipse;whiteSpace=wrap;html=1;rounded=0;shadow=0;comic=0;labelBackgroundColor=none;strokeWidth=1;fontFamily=Verdana;fontSize=12;align=center;" vertex="1" parent="1">
          <mxGeometry x="1000" y="422" width="20" height="20" as="geometry" />
        </mxCell>
        <mxCell id="gok9Ai7LqvoJ1hXdXVOz-13" style="edgeStyle=elbowEdgeStyle;rounded=0;html=1;labelBackgroundColor=none;startArrow=none;startFill=0;startSize=8;endArrow=none;endFill=0;endSize=16;fontFamily=Verdana;fontSize=12;" edge="1" parent="1" source="gok9Ai7LqvoJ1hXdXVOz-12">
          <mxGeometry relative="1" as="geometry">
            <mxPoint x="1010" y="387" as="targetPoint" />
          </mxGeometry>
        </mxCell>
        <mxCell id="gok9Ai7LqvoJ1hXdXVOz-14" style="edgeStyle=none;rounded=0;html=1;dashed=1;labelBackgroundColor=none;startArrow=open;startFill=0;startSize=8;endArrow=open;endFill=0;endSize=16;fontFamily=Verdana;fontSize=12;exitX=0.007;exitY=0.215;exitDx=0;exitDy=0;exitPerimeter=0;" edge="1" parent="1" source="39150e848f15840c-3">
          <mxGeometry relative="1" as="geometry">
            <mxPoint x="1009.5" y="607" as="sourcePoint" />
            <mxPoint x="1009.5" y="442" as="targetPoint" />
          </mxGeometry>
        </mxCell>
        <mxCell id="gok9Ai7LqvoJ1hXdXVOz-15" value="读取动态数据" style="text;strokeColor=#82b366;align=center;fillColor=#d5e8d4;html=1;verticalAlign=middle;whiteSpace=wrap;rounded=0;" vertex="1" parent="1">
          <mxGeometry x="855" y="507" width="100" height="30" as="geometry" />
        </mxCell>
        <mxCell id="gok9Ai7LqvoJ1hXdXVOz-17" value="第三方中间件" style="verticalAlign=top;align=left;spacingTop=8;spacingLeft=2;spacingRight=12;shape=cube;size=10;direction=south;fontStyle=4;html=1;rounded=0;shadow=0;comic=0;labelBackgroundColor=none;strokeWidth=1;fontFamily=Verdana;fontSize=12" vertex="1" parent="1">
          <mxGeometry x="520" width="530" height="158" as="geometry" />
        </mxCell>
        <mxCell id="gok9Ai7LqvoJ1hXdXVOz-18" value="AGC/AVC线程" style="verticalAlign=top;align=left;spacingTop=8;spacingLeft=2;spacingRight=12;shape=cube;size=10;direction=south;fontStyle=4;html=1;rounded=0;shadow=0;comic=0;labelBackgroundColor=none;strokeWidth=1;fontFamily=Verdana;fontSize=12" vertex="1" parent="1">
          <mxGeometry x="1330" y="267" width="330" height="220" as="geometry" />
        </mxCell>
        <mxCell id="gok9Ai7LqvoJ1hXdXVOz-19" value="数据存储：模型配置\参数配置\&lt;div&gt;服务总线：控制服务\手动调节\上传服务&lt;/div&gt;&lt;div&gt;消息队列:&amp;nbsp; 变化数据&lt;/div&gt;" style="shape=component;align=left;spacingLeft=36;rounded=0;shadow=0;comic=0;labelBackgroundColor=none;strokeWidth=1;fontFamily=Verdana;fontSize=12;html=1;" vertex="1" parent="1">
          <mxGeometry x="600" y="49" width="360" height="81" as="geometry" />
        </mxCell>
        <mxCell id="gok9Ai7LqvoJ1hXdXVOz-21" style="edgeStyle=orthogonalEdgeStyle;rounded=0;orthogonalLoop=1;jettySize=auto;html=1;entryX=0.5;entryY=0;entryDx=0;entryDy=0;endArrow=none;startFill=0;" edge="1" parent="1" source="gok9Ai7LqvoJ1hXdXVOz-20" target="39150e848f15840c-5">
          <mxGeometry relative="1" as="geometry" />
        </mxCell>
        <mxCell id="gok9Ai7LqvoJ1hXdXVOz-20" value="" style="ellipse;whiteSpace=wrap;html=1;rounded=0;shadow=0;comic=0;labelBackgroundColor=none;strokeWidth=1;fontFamily=Verdana;fontSize=12;align=center;" vertex="1" parent="1">
          <mxGeometry x="351" y="290" width="20" height="20" as="geometry" />
        </mxCell>
        <mxCell id="gok9Ai7LqvoJ1hXdXVOz-22" style="edgeStyle=none;rounded=0;html=1;dashed=1;labelBackgroundColor=none;startArrow=none;startFill=0;startSize=8;endArrow=open;endFill=0;endSize=16;fontFamily=Verdana;fontSize=12;exitX=1;exitY=0.753;exitDx=0;exitDy=0;exitPerimeter=0;" edge="1" parent="1" source="gok9Ai7LqvoJ1hXdXVOz-17">
          <mxGeometry relative="1" as="geometry">
            <mxPoint x="688" y="461" as="sourcePoint" />
            <mxPoint x="360" y="290" as="targetPoint" />
          </mxGeometry>
        </mxCell>
        <mxCell id="gok9Ai7LqvoJ1hXdXVOz-23" value="订阅模型配置" style="text;strokeColor=#d6b656;align=center;fillColor=#fff2cc;html=1;verticalAlign=middle;whiteSpace=wrap;rounded=0;" vertex="1" parent="1">
          <mxGeometry x="351" y="210" width="110" height="30" as="geometry" />
        </mxCell>
        <mxCell id="gok9Ai7LqvoJ1hXdXVOz-24" style="edgeStyle=orthogonalEdgeStyle;rounded=0;orthogonalLoop=1;jettySize=auto;html=1;entryX=0.5;entryY=0;entryDx=0;entryDy=0;endArrow=none;startFill=0;" edge="1" parent="1" source="gok9Ai7LqvoJ1hXdXVOz-25">
          <mxGeometry relative="1" as="geometry">
            <mxPoint x="600" y="332" as="targetPoint" />
          </mxGeometry>
        </mxCell>
        <mxCell id="gok9Ai7LqvoJ1hXdXVOz-25" value="" style="ellipse;whiteSpace=wrap;html=1;rounded=0;shadow=0;comic=0;labelBackgroundColor=none;strokeWidth=1;fontFamily=Verdana;fontSize=12;align=center;" vertex="1" parent="1">
          <mxGeometry x="590" y="290" width="20" height="20" as="geometry" />
        </mxCell>
        <mxCell id="gok9Ai7LqvoJ1hXdXVOz-26" style="edgeStyle=none;rounded=0;html=1;dashed=1;labelBackgroundColor=none;startArrow=open;startFill=0;startSize=8;endArrow=open;endFill=0;endSize=16;fontFamily=Verdana;fontSize=12;exitX=1;exitY=0.753;exitDx=0;exitDy=0;exitPerimeter=0;entryX=0.5;entryY=0;entryDx=0;entryDy=0;" edge="1" parent="1" target="gok9Ai7LqvoJ1hXdXVOz-25">
          <mxGeometry relative="1" as="geometry">
            <mxPoint x="731" y="159" as="sourcePoint" />
            <mxPoint x="440" y="291" as="targetPoint" />
          </mxGeometry>
        </mxCell>
        <mxCell id="gok9Ai7LqvoJ1hXdXVOz-27" value="订阅参数配置" style="text;strokeColor=#d6b656;align=center;fillColor=#fff2cc;html=1;verticalAlign=middle;whiteSpace=wrap;rounded=0;" vertex="1" parent="1">
          <mxGeometry x="545" y="210" width="110" height="30" as="geometry" />
        </mxCell>
        <mxCell id="gok9Ai7LqvoJ1hXdXVOz-28" value="写入变化数据" style="text;strokeColor=#82b366;align=center;fillColor=#d5e8d4;html=1;verticalAlign=middle;whiteSpace=wrap;rounded=0;" vertex="1" parent="1">
          <mxGeometry x="690" y="200" width="110" height="30" as="geometry" />
        </mxCell>
        <mxCell id="gok9Ai7LqvoJ1hXdXVOz-29" value="提供控制服务" style="text;strokeColor=#d6b656;align=center;fillColor=#fff2cc;html=1;verticalAlign=middle;whiteSpace=wrap;rounded=0;" vertex="1" parent="1">
          <mxGeometry x="690" y="230" width="110" height="30" as="geometry" />
        </mxCell>
        <mxCell id="gok9Ai7LqvoJ1hXdXVOz-30" style="edgeStyle=orthogonalEdgeStyle;rounded=0;orthogonalLoop=1;jettySize=auto;html=1;exitX=1;exitY=0.5;exitDx=0;exitDy=0;" edge="1" parent="1" source="gok9Ai7LqvoJ1hXdXVOz-31" target="gok9Ai7LqvoJ1hXdXVOz-32">
          <mxGeometry relative="1" as="geometry" />
        </mxCell>
        <mxCell id="gok9Ai7LqvoJ1hXdXVOz-31" value="目标计划&lt;div&gt;控制策略&lt;/div&gt;&lt;div&gt;下发指令&lt;/div&gt;" style="shape=component;align=left;spacingLeft=36;rounded=0;shadow=0;comic=0;labelBackgroundColor=none;strokeWidth=1;fontFamily=Verdana;fontSize=12;html=1;" vertex="1" parent="1">
          <mxGeometry x="1355" y="328" width="120" height="60" as="geometry" />
        </mxCell>
        <mxCell id="gok9Ai7LqvoJ1hXdXVOz-32" value="«interface»&lt;br&gt;&lt;b&gt;手动调节&lt;/b&gt;&lt;div&gt;&lt;br&gt;&lt;/div&gt;" style="html=1;rounded=0;shadow=0;comic=0;labelBackgroundColor=none;strokeWidth=1;fontFamily=Verdana;fontSize=12;align=center;" vertex="1" parent="1">
          <mxGeometry x="1515" y="324" width="110" height="68" as="geometry" />
        </mxCell>
        <mxCell id="gok9Ai7LqvoJ1hXdXVOz-33" value="" style="ellipse;whiteSpace=wrap;html=1;rounded=0;shadow=0;comic=0;labelBackgroundColor=none;strokeWidth=1;fontFamily=Verdana;fontSize=12;align=center;" vertex="1" parent="1">
          <mxGeometry x="1405" y="423" width="20" height="20" as="geometry" />
        </mxCell>
        <mxCell id="gok9Ai7LqvoJ1hXdXVOz-34" style="edgeStyle=elbowEdgeStyle;rounded=0;html=1;labelBackgroundColor=none;startArrow=none;startFill=0;startSize=8;endArrow=none;endFill=0;endSize=16;fontFamily=Verdana;fontSize=12;" edge="1" parent="1" source="gok9Ai7LqvoJ1hXdXVOz-33">
          <mxGeometry relative="1" as="geometry">
            <mxPoint x="1415" y="388" as="targetPoint" />
          </mxGeometry>
        </mxCell>
        <mxCell id="gok9Ai7LqvoJ1hXdXVOz-35" style="edgeStyle=none;rounded=0;html=1;dashed=1;labelBackgroundColor=none;startArrow=open;startFill=0;startSize=8;endArrow=open;endFill=0;endSize=16;fontFamily=Verdana;fontSize=12;exitX=1;exitY=0.753;exitDx=0;exitDy=0;exitPerimeter=0;entryX=0.5;entryY=0;entryDx=0;entryDy=0;" edge="1" parent="1" target="gok9Ai7LqvoJ1hXdXVOz-46">
          <mxGeometry relative="1" as="geometry">
            <mxPoint x="920" y="158" as="sourcePoint" />
            <mxPoint x="789" y="289" as="targetPoint" />
          </mxGeometry>
        </mxCell>
        <mxCell id="gok9Ai7LqvoJ1hXdXVOz-36" value="订阅参数配置" style="text;strokeColor=#d6b656;align=center;fillColor=#fff2cc;html=1;verticalAlign=middle;whiteSpace=wrap;rounded=0;" vertex="1" parent="1">
          <mxGeometry x="850" y="220" width="110" height="30" as="geometry" />
        </mxCell>
        <mxCell id="gok9Ai7LqvoJ1hXdXVOz-38" value="调用控制服务" style="text;strokeColor=#82b366;align=center;fillColor=#d5e8d4;html=1;verticalAlign=middle;whiteSpace=wrap;rounded=0;" vertex="1" parent="1">
          <mxGeometry x="980" y="190" width="110" height="30" as="geometry" />
        </mxCell>
        <mxCell id="gok9Ai7LqvoJ1hXdXVOz-39" style="edgeStyle=none;rounded=0;html=1;dashed=1;labelBackgroundColor=none;startArrow=open;startFill=0;startSize=8;endArrow=open;endFill=0;endSize=16;fontFamily=Verdana;fontSize=12;exitX=1;exitY=0.753;exitDx=0;exitDy=0;exitPerimeter=0;entryX=0.005;entryY=0.639;entryDx=0;entryDy=0;entryPerimeter=0;" edge="1" parent="1" target="gok9Ai7LqvoJ1hXdXVOz-18">
          <mxGeometry relative="1" as="geometry">
            <mxPoint x="1050" y="121" as="sourcePoint" />
            <mxPoint x="1132" y="230" as="targetPoint" />
          </mxGeometry>
        </mxCell>
        <mxCell id="gok9Ai7LqvoJ1hXdXVOz-40" value="订阅参数配置" style="text;strokeColor=#d6b656;align=center;fillColor=#fff2cc;html=1;verticalAlign=middle;whiteSpace=wrap;rounded=0;" vertex="1" parent="1">
          <mxGeometry x="1180" y="210" width="110" height="30" as="geometry" />
        </mxCell>
        <mxCell id="gok9Ai7LqvoJ1hXdXVOz-41" value="订阅变化数据" style="text;strokeColor=#d6b656;align=center;fillColor=#fff2cc;html=1;verticalAlign=middle;whiteSpace=wrap;rounded=0;" vertex="1" parent="1">
          <mxGeometry x="1240" y="158" width="110" height="30" as="geometry" />
        </mxCell>
        <mxCell id="gok9Ai7LqvoJ1hXdXVOz-42" value="写入变化数据" style="text;strokeColor=#82b366;align=center;fillColor=#d5e8d4;html=1;verticalAlign=middle;whiteSpace=wrap;rounded=0;" vertex="1" parent="1">
          <mxGeometry x="1320" y="188" width="110" height="30" as="geometry" />
        </mxCell>
        <mxCell id="gok9Ai7LqvoJ1hXdXVOz-43" value="订阅变化数据" style="text;strokeColor=#d6b656;align=center;fillColor=#fff2cc;html=1;verticalAlign=middle;whiteSpace=wrap;rounded=0;" vertex="1" parent="1">
          <mxGeometry x="850" y="190" width="110" height="30" as="geometry" />
        </mxCell>
        <mxCell id="gok9Ai7LqvoJ1hXdXVOz-44" value="调用控制服务" style="text;strokeColor=#82b366;align=center;fillColor=#d5e8d4;html=1;verticalAlign=middle;whiteSpace=wrap;rounded=0;" vertex="1" parent="1">
          <mxGeometry x="1410" y="218" width="110" height="30" as="geometry" />
        </mxCell>
        <mxCell id="gok9Ai7LqvoJ1hXdXVOz-45" style="edgeStyle=orthogonalEdgeStyle;rounded=0;orthogonalLoop=1;jettySize=auto;html=1;entryX=0.5;entryY=0;entryDx=0;entryDy=0;endArrow=none;startFill=0;" edge="1" parent="1" source="gok9Ai7LqvoJ1hXdXVOz-46">
          <mxGeometry relative="1" as="geometry">
            <mxPoint x="1012" y="328" as="targetPoint" />
          </mxGeometry>
        </mxCell>
        <mxCell id="gok9Ai7LqvoJ1hXdXVOz-46" value="" style="ellipse;whiteSpace=wrap;html=1;rounded=0;shadow=0;comic=0;labelBackgroundColor=none;strokeWidth=1;fontFamily=Verdana;fontSize=12;align=center;" vertex="1" parent="1">
          <mxGeometry x="1002" y="286" width="20" height="20" as="geometry" />
        </mxCell>
        <mxCell id="gok9Ai7LqvoJ1hXdXVOz-47" style="edgeStyle=none;rounded=0;html=1;dashed=1;labelBackgroundColor=none;startArrow=open;startFill=0;startSize=8;endArrow=open;endFill=0;endSize=16;fontFamily=Verdana;fontSize=12;exitX=0;exitY=0.075;exitDx=0;exitDy=0;exitPerimeter=0;" edge="1" parent="1" source="39150e848f15840c-3">
          <mxGeometry relative="1" as="geometry">
            <mxPoint x="1320" y="613" as="sourcePoint" />
            <mxPoint x="1413.5" y="442" as="targetPoint" />
          </mxGeometry>
        </mxCell>
        <mxCell id="gok9Ai7LqvoJ1hXdXVOz-48" value="读取动态数据" style="text;strokeColor=#82b366;align=center;fillColor=#d5e8d4;html=1;verticalAlign=middle;whiteSpace=wrap;rounded=0;" vertex="1" parent="1">
          <mxGeometry x="1070" y="507" width="100" height="30" as="geometry" />
        </mxCell>
        <mxCell id="gok9Ai7LqvoJ1hXdXVOz-49" value="写入AGC/AVC数据" style="text;strokeColor=#d6b656;align=center;fillColor=#fff2cc;html=1;verticalAlign=middle;whiteSpace=wrap;rounded=0;" vertex="1" parent="1">
          <mxGeometry x="1185" y="537" width="125" height="30" as="geometry" />
        </mxCell>
        <mxCell id="gok9Ai7LqvoJ1hXdXVOz-50" value="历史线程" style="verticalAlign=top;align=left;spacingTop=8;spacingLeft=2;spacingRight=12;shape=cube;size=10;direction=south;fontStyle=4;html=1;rounded=0;shadow=0;comic=0;labelBackgroundColor=none;strokeWidth=1;fontFamily=Verdana;fontSize=12" vertex="1" parent="1">
          <mxGeometry x="-260" y="267" width="330" height="220" as="geometry" />
        </mxCell>
        <mxCell id="gok9Ai7LqvoJ1hXdXVOz-51" style="edgeStyle=none;rounded=0;html=1;dashed=1;labelBackgroundColor=none;startArrow=open;startFill=0;startSize=8;endArrow=open;endFill=0;endSize=16;fontFamily=Verdana;fontSize=12;exitX=1;exitY=0.753;exitDx=0;exitDy=0;exitPerimeter=0;entryX=0.5;entryY=0;entryDx=0;entryDy=0;" edge="1" parent="1" target="gok9Ai7LqvoJ1hXdXVOz-59">
          <mxGeometry relative="1" as="geometry">
            <mxPoint x="520" y="108" as="sourcePoint" />
            <mxPoint x="229" y="240" as="targetPoint" />
          </mxGeometry>
        </mxCell>
        <mxCell id="gok9Ai7LqvoJ1hXdXVOz-52" value="订阅参数配置" style="text;strokeColor=#d6b656;align=center;fillColor=#fff2cc;html=1;verticalAlign=middle;whiteSpace=wrap;rounded=0;" vertex="1" parent="1">
          <mxGeometry y="188" width="110" height="30" as="geometry" />
        </mxCell>
        <mxCell id="gok9Ai7LqvoJ1hXdXVOz-53" value="«interface»&lt;div&gt;&lt;br/&gt;&lt;/div&gt;" style="html=1;rounded=0;shadow=0;comic=0;labelBackgroundColor=none;strokeWidth=1;fontFamily=Verdana;fontSize=12;align=center;" vertex="1" parent="1">
          <mxGeometry x="-234" y="338" width="110" height="50" as="geometry" />
        </mxCell>
        <mxCell id="gok9Ai7LqvoJ1hXdXVOz-54" value="历史采样&lt;div&gt;历史缓存文件&lt;/div&gt;" style="shape=component;align=left;spacingLeft=36;rounded=0;shadow=0;comic=0;labelBackgroundColor=none;strokeWidth=1;fontFamily=Verdana;fontSize=12;html=1;" vertex="1" parent="1">
          <mxGeometry x="-84" y="333" width="120" height="60" as="geometry" />
        </mxCell>
        <mxCell id="gok9Ai7LqvoJ1hXdXVOz-55" value="" style="ellipse;whiteSpace=wrap;html=1;rounded=0;shadow=0;comic=0;labelBackgroundColor=none;strokeWidth=1;fontFamily=Verdana;fontSize=12;align=center;" vertex="1" parent="1">
          <mxGeometry x="-34" y="428" width="20" height="20" as="geometry" />
        </mxCell>
        <mxCell id="gok9Ai7LqvoJ1hXdXVOz-56" style="edgeStyle=elbowEdgeStyle;rounded=0;html=1;labelBackgroundColor=none;startArrow=none;startFill=0;startSize=8;endArrow=none;endFill=0;endSize=16;fontFamily=Verdana;fontSize=12;" edge="1" parent="1" source="gok9Ai7LqvoJ1hXdXVOz-55" target="gok9Ai7LqvoJ1hXdXVOz-54">
          <mxGeometry relative="1" as="geometry" />
        </mxCell>
        <mxCell id="gok9Ai7LqvoJ1hXdXVOz-57" style="edgeStyle=orthogonalEdgeStyle;rounded=0;html=1;labelBackgroundColor=none;startArrow=none;startFill=0;startSize=8;endArrow=open;endFill=0;endSize=16;fontFamily=Verdana;fontSize=12;dashed=1;" edge="1" parent="1" source="gok9Ai7LqvoJ1hXdXVOz-54" target="gok9Ai7LqvoJ1hXdXVOz-53">
          <mxGeometry relative="1" as="geometry">
            <Array as="points">
              <mxPoint x="-44" y="418" />
              <mxPoint x="-179" y="418" />
            </Array>
          </mxGeometry>
        </mxCell>
        <mxCell id="gok9Ai7LqvoJ1hXdXVOz-58" style="edgeStyle=orthogonalEdgeStyle;rounded=0;orthogonalLoop=1;jettySize=auto;html=1;entryX=0.5;entryY=0;entryDx=0;entryDy=0;endArrow=none;startFill=0;" edge="1" parent="1" source="gok9Ai7LqvoJ1hXdXVOz-59" target="gok9Ai7LqvoJ1hXdXVOz-54">
          <mxGeometry relative="1" as="geometry" />
        </mxCell>
        <mxCell id="gok9Ai7LqvoJ1hXdXVOz-59" value="" style="ellipse;whiteSpace=wrap;html=1;rounded=0;shadow=0;comic=0;labelBackgroundColor=none;strokeWidth=1;fontFamily=Verdana;fontSize=12;align=center;" vertex="1" parent="1">
          <mxGeometry x="-34" y="291" width="20" height="20" as="geometry" />
        </mxCell>
        <mxCell id="gok9Ai7LqvoJ1hXdXVOz-60" value="提供上传服务" style="text;strokeColor=#d6b656;align=center;fillColor=#fff2cc;html=1;verticalAlign=middle;whiteSpace=wrap;rounded=0;" vertex="1" parent="1">
          <mxGeometry x="990" y="220" width="110" height="30" as="geometry" />
        </mxCell>
        <mxCell id="gok9Ai7LqvoJ1hXdXVOz-61" value="调用上传服务" style="text;strokeColor=#82b366;align=center;fillColor=#d5e8d4;html=1;verticalAlign=middle;whiteSpace=wrap;rounded=0;" vertex="1" parent="1">
          <mxGeometry y="230" width="110" height="30" as="geometry" />
        </mxCell>
        <mxCell id="gok9Ai7LqvoJ1hXdXVOz-62" value="订阅变化数据" style="text;strokeColor=#d6b656;align=center;fillColor=#fff2cc;html=1;verticalAlign=middle;whiteSpace=wrap;rounded=0;" vertex="1" parent="1">
          <mxGeometry y="150" width="110" height="30" as="geometry" />
        </mxCell>
        <mxCell id="gok9Ai7LqvoJ1hXdXVOz-63" style="edgeStyle=none;rounded=0;html=1;dashed=1;labelBackgroundColor=none;startArrow=none;startFill=0;startSize=8;endArrow=open;endFill=0;endSize=16;fontFamily=Verdana;fontSize=12;exitX=0.272;exitY=1.006;exitDx=0;exitDy=0;exitPerimeter=0;" edge="1" parent="1" source="39150e848f15840c-3">
          <mxGeometry relative="1" as="geometry">
            <mxPoint x="490.0000000000002" y="662.982" as="sourcePoint" />
            <mxPoint x="-25.759999999999998" y="447" as="targetPoint" />
          </mxGeometry>
        </mxCell>
        <mxCell id="gok9Ai7LqvoJ1hXdXVOz-64" value="读取动态数据" style="text;strokeColor=#82b366;align=center;fillColor=#d5e8d4;html=1;verticalAlign=middle;whiteSpace=wrap;rounded=0;" vertex="1" parent="1">
          <mxGeometry x="110" y="550" width="100" height="30" as="geometry" />
        </mxCell>
      </root>
    </mxGraphModel>
  </diagram>
</mxfile>
